PathFileType	4	(X/Y/Z)	C:\Users\Basilio\Documents\Thesis Gigler\squatting_fais\c3dfiles\075\SLS_front_pre2\markers_experimental.trc
DataRate	CameraRate	NumFrames	NumMarkers	Units	OrigDataRate	OrigDataStartFrame	OrigNumFrames
200.000000	200.000000	4	61	mm	200.000000	552	1473
Frame#	Time	FHD			LBHD			C7			T10			CLAV			LSHO			LUUPA			LMUPA			LDUPA			LLEP			LMEP			LRAD			LUL			LRFIN			RSHO			RUPA1			RMUPA			RDUPA			RLEP			RMEP			RRAD			RUL			RUFIN			RASI			USACR			LSACR			RSACR			LTHI1			LTHI2			LTHI3			LTHI4			LLFC			LMFC			LTIB1			LTIB2			LTIB3			LTIB4			LLMAL			LMMAL			LHEE			LMT1			LMT2			LMT5			RTHI			RTHI2			RTHI3			RTHI4			RLFC			RMFC			RTIB1			RTIB2			RTIB3			RTIB4			RLMAL			RMMAL			RHEE			RMT1			RMT2			RMT5			RBHD			LASI			
		X1	Y1	Z1	X2	Y2	Z2	X3	Y3	Z3	X4	Y4	Z4	X5	Y5	Z5	X6	Y6	Z6	X7	Y7	Z7	X8	Y8	Z8	X9	Y9	Z9	X10	Y10	Z10	X11	Y11	Z11	X12	Y12	Z12	X13	Y13	Z13	X14	Y14	Z14	X15	Y15	Z15	X16	Y16	Z16	X17	Y17	Z17	X18	Y18	Z18	X19	Y19	Z19	X20	Y20	Z20	X21	Y21	Z21	X22	Y22	Z22	X23	Y23	Z23	X24	Y24	Z24	X25	Y25	Z25	X26	Y26	Z26	X27	Y27	Z27	X28	Y28	Z28	X29	Y29	Z29	X30	Y30	Z30	X31	Y31	Z31	X32	Y32	Z32	X33	Y33	Z33	X34	Y34	Z34	X35	Y35	Z35	X36	Y36	Z36	X37	Y37	Z37	X38	Y38	Z38	X39	Y39	Z39	X40	Y40	Z40	X41	Y41	Z41	X42	Y42	Z42	X43	Y43	Z43	X44	Y44	Z44	X45	Y45	Z45	X46	Y46	Z46	X47	Y47	Z47	X48	Y48	Z48	X49	Y49	Z49	X50	Y50	Z50	X51	Y51	Z51	X52	Y52	Z52	X53	Y53	Z53	X54	Y54	Z54	X55	Y55	Z55	X56	Y56	Z56	X57	Y57	Z57	X58	Y58	Z58	X59	Y59	Z59	X60	Y60	Z60	X61	Y61	Z61	

553	2.76	-279.7021484375001	1531.772827148438	-757.7039794921876	-425.0843811035157	1422.320922851563	-838.6633300781252	-462.4991149902345	1318.924682617188	-786.4766235351565	-559.4603271484376	1010.295104980469	-780.8869628906252	-336.5321960449219	1233.592895507813	-779.234069824219	-344.9390563964844	1288.6513671875	-912.101257324219	-190.3341369628907	1220.657470703125	-999.0679931640627	-165.7217254638672	1233.61669921875	-957.524841308594	-122.3788223266602	1207.537963867188	-990.3833007812502	-43.53976821899415	1189.711303710938	-973.5130004882815	-67.40266418457033	1118.068969726563	-934.821472167969	nan	nan	nan	194.2783355712891	1190.812744140625	-867.178649902344	196.4298248291016	1214.302978515625	-763.3365478515626	-363.2417297363282	1280.157958984375	-644.4080810546876	-227.7201080322266	1206.855590820313	-533.5154418945314	-192.8187408447266	1221.037353515625	-565.0307617187501	-158.9199829101563	1192.2275390625	-523.1632080078126	-88.78697967529298	1182.302490234375	-526.6505737304689	-86.87273406982423	1108.482177734375	-551.3051147460939	125.7071075439453	1196.7705078125	-708.3309936523439	145.2434234619141	1209.287841796875	-633.6481933593751	200.0444793701172	1234.553833007813	-733.2390747070314	-416.3106689453126	827.310729980469	-671.8950195312501	-576.4127807617189	887.7569580078127	-790.0046997070315	-586.2615966796876	857.8809814453127	-817.3708496093752	-582.6488037109376	855.6779785156252	-761.3975219726564	-346.5304870605469	669.7128295898439	-1013.926513671875	-265.5883483886719	643.6383666992189	-1017.436889648438	-239.0936279296876	678.9833374023439	-994.3533325195315	-241.3515014648438	588.6870727539064	-1017.090576171875	-172.2865447998047	505.5468139648439	-1015.106384277344	-129.3297576904297	514.4869995117189	-893.0052490234377	-55.13965606689455	437.384002685547	-990.8723144531252	-85.81409454345705	373.2561645507813	-1039.335815429688	-47.0004005432129	388.8084106445314	-1021.132446289063	-6.307054042816164	318.5685729980469	-994.8587036132815	6.142570972442629	156.442123413086	-1019.138732910156	25.07453346252442	184.6054840087891	-937.3017578125002	-34.51477050781251	111.6694717407227	-974.9400634765627	166.6883850097657	160.6817474365235	-936.386169433594	173.8701324462891	159.4308624267578	-985.6405029296877	146.4689178466797	121.00244140625	-1032.3359375	-391.5971069335939	639.9793090820314	-606.8853759765626	-327.6547851562501	623.4806518554689	-607.2618408203126	-306.3450927734376	648.5769042968751	-615.9761962890626	-296.5439453125001	545.2350463867189	-613.6633911132814	-223.4470367431641	424.3323059082032	-652.9004516601564	-191.7188110351563	442.5787658691407	-772.1520996093752	-209.1430664062501	296.0719604492188	-748.5088500976564	-285.3879699707032	232.5207977294922	-703.1608886718751	-255.5812988281251	222.4327087402344	-739.3855590820314	-282.5579223632813	196.5597076416016	-784.4216918945315	-394.6465148925782	103.4623107910157	-765.9025268554689	-354.4420776367188	138.0164794921875	-841.577331542969	-447.2436828613282	92.38423156738283	-833.268493652344	-242.417709350586	60.57119369506837	-821.3668212890627	-247.5550994873047	56.75720596313478	-778.9973144531252	-289.9179077148438	32.95639419555665	-733.1445922851564	-394.0875854492189	1451.914184570313	-681.5556640625001	-430.3391418457032	839.8062744140627	-921.4448242187502	
554	2.765	-279.4620666503907	1530.878173828125	-757.3962402343751	-425.0847167968751	1421.915649414063	-838.3856201171877	-462.3760070800782	1318.1640625	-786.2728271484377	-559.6889038085939	1009.608154296875	-780.886657714844	-336.6044921875001	1232.742553710938	-779.0522460937502	-344.6750183105469	1287.797485351563	-911.7854003906252	-190.6833953857422	1220.476440429688	-999.440856933594	-165.6761474609375	1232.746948242188	-957.3973388671877	-122.2078399658203	1206.9453125	-990.3298339843752	-43.52410888671876	1188.9970703125	-973.4464111328127	-67.37906646728517	1117.387329101563	-934.7522583007815	nan	nan	nan	194.436264038086	1190.12646484375	-867.3839111328127	196.5358581542969	1213.506469726563	-763.3604736328126	-363.1156616210938	1279.208129882813	-644.3317871093751	-227.568099975586	1205.728515625	-533.5115966796876	-192.7658996582032	1220.032592773438	-564.8814086914064	-158.8102416992188	1191.1630859375	-523.1281738281251	-88.57784271240236	1181.31591796875	-526.6875000000001	-86.8377151489258	1107.42431640625	-551.4458007812501	125.8015441894532	1196.203247070313	-708.3718261718751	145.4881744384766	1208.529541015625	-633.7816162109376	200.2085876464844	1233.806396484375	-733.3277587890626	-416.5848999023439	826.6233520507815	-671.8417358398439	-576.8599853515626	886.9129028320315	-790.0787353515627	-586.6082763671876	857.200134277344	-817.500915527344	-583.2239379882814	854.8536376953127	-761.4539184570314	-345.7832031250001	668.6844482421876	-1013.676208496094	-265.9242553710938	643.1260986328126	-1017.672912597656	-239.459945678711	678.5277709960939	-994.6082153320315	-241.6463775634766	588.0606079101564	-1017.256652832031	-172.2252960205078	505.1070556640626	-1015.263916015625	-129.4207153320313	514.1274414062501	-893.2742309570315	-55.1272430419922	437.0703430175782	-991.129089355469	-85.75656890869142	372.9545593261719	-1039.590209960938	-46.95969390869141	388.591522216797	-1021.423278808594	-6.134857177734377	318.3281860351563	-995.0762329101565	6.628914356231691	156.2307586669922	-1019.478210449219	25.39394760131837	184.3957061767578	-937.5908203125002	-33.95419692993165	111.3367538452149	-975.227478027344	167.0712432861328	160.8610534667969	-936.664489746094	174.3148193359375	159.6600646972657	-985.8869628906252	146.9485015869141	121.1837158203125	-1032.69384765625	-391.8760986328126	639.3578491210939	-606.7839355468751	-327.8466186523438	623.0544433593751	-607.2413940429689	-306.6128845214844	648.1138305664064	-615.9781494140626	-296.6045532226563	544.7862548828126	-613.5040283203126	-223.2089385986329	424.1414794921876	-652.6479492187501	-191.4664611816407	442.3335266113282	-771.961120605469	-208.946517944336	295.9005126953126	-748.3577880859376	-285.3217468261719	232.4156036376954	-703.0734252929689	-255.8409271240235	222.2986602783204	-739.5169067382814	-282.5822753906251	196.4625091552735	-784.318542480469	-394.6827087402345	103.3863296508789	-765.8168334960939	-354.5009155273438	137.9872741699219	-841.4849853515627	-447.2489013671876	92.38293457031251	-833.2047119140627	-242.4338531494141	60.62235260009767	-821.334655761719	-247.5195312500001	56.76924133300783	-778.9613037109377	-290.0333557128907	32.86803436279298	-733.1323852539064	-393.7148742675782	1451.0986328125	-681.3985595703126	-430.7587890625001	839.0474243164065	-921.610534667969	
555	2.77	-279.4172058105469	1529.905517578125	-757.2128295898439	-425.019744873047	1420.828491210938	-838.0601806640627	-462.3347167968751	1317.22509765625	-785.9878540039065	-559.9494628906251	1008.889038085938	-780.8511352539065	-336.4621582031251	1231.71875	-778.8516845703127	-344.5771484375001	1287.13623046875	-911.6523437500002	-189.8748016357422	1219.494140625	-999.1165771484377	-165.5129699707032	1232.060913085938	-957.2341308593752	-122.0488510131836	1206.405639648438	-990.3135375976565	-43.18576049804688	1188.419921875	-973.5106201171877	-67.75511169433595	1116.995727539063	-935.147644042969	nan	nan	nan	194.5024414062501	1189.421020507813	-867.409606933594	196.5512237548829	1212.657104492188	-763.4641113281251	-362.8694763183594	1278.145874023438	-644.1093750000001	-227.396713256836	1204.846923828125	-533.4312133789064	-192.5751953125001	1219.018920898438	-564.9032592773439	-158.6068878173828	1190.033935546875	-523.1600341796876	-88.42514801025392	1180.21826171875	-526.7147216796876	-86.63208770751955	1106.56494140625	-551.6357421875001	125.9535675048828	1195.467407226563	-708.3348388671876	145.6329345703125	1207.521850585938	-633.8210449218751	200.1605987548829	1233.0400390625	-733.4317626953126	-416.9095458984376	825.6580200195315	-671.7632446289064	-577.2371215820314	886.2565917968752	-790.1658935546877	-587.0556030273439	856.5222167968752	-817.6037597656252	-583.6472778320314	854.081970214844	-761.5869140625001	-346.4425354003907	668.1598510742189	-1013.800354003906	-266.1555480957032	642.5688476562501	-1017.815673828125	-239.990707397461	677.9761352539064	-994.774597167969	-241.7831726074219	587.5786743164064	-1017.546142578125	-172.3992614746094	504.6589965820314	-1015.4853515625	-129.4810943603516	513.8376464843751	-893.4792480468752	-55.1009979248047	436.8285217285157	-991.3088989257815	-85.6968231201172	372.6535034179688	-1039.81005859375	-46.99650955200196	388.2862548828126	-1021.660339355469	-6.045331954956056	318.0470581054688	-995.358093261719	7.065647602081301	155.9927215576172	-1019.814270019531	25.68103790283204	184.234359741211	-937.7656860351565	-34.11482620239259	111.2798614501953	-975.7249145507815	167.3923797607422	160.9237823486328	-936.842956542969	174.683837890625	159.8543395996094	-986.099060058594	147.4332275390625	121.3543472290039	-1033.088134765625	-392.1218261718751	638.7717285156251	-606.8598632812501	-328.1354064941407	622.5883178710939	-607.1554565429689	-306.8869018554688	647.7198486328126	-615.9854125976564	-296.6643676757813	544.4103393554689	-613.3343505859376	-223.0233612060547	423.8881225585939	-652.4896240234376	-191.2235870361328	442.1283264160157	-771.820495605469	-208.7922515869141	295.7387390136719	-748.2167358398439	-285.2665405273438	232.3439178466797	-702.9840087890626	-255.3737792968751	222.1502990722657	-739.1181030273439	-282.5737304687501	196.3537292480469	-784.1182861328127	-394.6710205078126	103.3814697265625	-765.7174072265626	-354.6463012695313	138.1410217285157	-841.3831787109377	-447.2952270507814	92.39443969726564	-833.1815185546877	-242.3852691650391	60.64517974853517	-821.2073364257815	-247.4245300292969	56.79704666137697	-778.8099365234377	-290.0348205566407	32.85261917114259	-733.1577148437501	-393.3927307128907	1450.337890625	-681.2451171875001	-431.1373901367189	838.3284301757815	-921.7514648437502	
556	2.775	-279.1808166503907	1528.829833984375	-756.8838500976564	-424.9783935546876	1419.588500976563	-837.7891845703127	-462.0655212402345	1316.397216796875	-785.716491699219	-560.2111206054689	1008.220458984375	-780.887145996094	-336.4811096191407	1230.693359375	-778.7694091796877	-344.6272888183594	1286.415893554688	-911.4334106445315	-189.9846496582032	1218.787719726563	-998.9473876953127	-165.5331726074219	1231.486694335938	-957.3008422851565	-122.0181884765625	1205.697143554688	-990.1759033203127	-42.98931503295899	1187.664306640625	-973.4136352539065	-66.94851684570314	1115.883056640625	-934.906433105469	nan	nan	nan	194.715072631836	1188.7001953125	-867.4807128906252	197.010482788086	1211.7861328125	-763.3462524414064	-362.6612854003907	1277.084228515625	-643.8280639648439	-227.2365264892579	1203.7275390625	-533.3788452148439	-192.501449584961	1218.02392578125	-564.9663696289064	-158.5283355712891	1189.030395507813	-523.2128906250001	-88.23165130615236	1179.402709960938	-526.7923583984376	-86.3950881958008	1105.635498046875	-551.8286743164064	125.7533111572266	1194.611206054688	-708.3546142578126	145.7958984375	1206.684814453125	-633.8889160156251	200.4546966552735	1232.170166015625	-733.3685302734376	-417.3915100097657	824.9094238281252	-671.8959960937501	-577.8392333984376	885.2515869140627	-790.2626953125002	-587.4155273437501	855.5972900390627	-817.6896972656252	-583.9746704101564	853.3479614257815	-761.6495361328126	-346.6549682617188	667.5120849609376	-1013.947387695313	-266.2880554199219	641.8943481445314	-1017.890747070313	-240.1754608154297	677.4425659179689	-994.9111328125002	-242.0018310546876	587.1064453125001	-1017.644836425781	-172.66650390625	504.2373962402345	-1015.650817871094	-129.4820709228516	513.5391235351564	-893.5585937500002	-55.06816864013673	436.5489501953126	-991.3660278320315	-85.57520294189455	372.3598327636719	-1040.040649414063	-46.96885681152344	387.9946289062501	-1021.831604003906	-5.834680557250977	317.7684631347657	-995.5043945312502	7.383560657501222	155.8904113769532	-1019.9794921875	25.96625900268555	184.0621795654297	-937.9752197265627	-33.72683334350587	110.9469985961914	-975.9552001953127	167.75048828125	161.1442260742188	-937.0638427734377	175.0256500244141	159.9929809570313	-986.3840942382815	147.9017028808594	121.4875106811524	-1033.415771484375	-392.3778686523439	638.1866455078126	-606.9662475585939	-328.2016296386719	622.2861938476564	-607.0755615234376	-307.0697631835938	647.3391723632814	-615.9844970703126	-296.5753479003907	544.0825195312501	-613.2806396484376	-222.819808959961	423.7169189453126	-652.3614501953126	-191.0042114257813	442.0432128906251	-771.7869873046877	-208.6467285156251	295.5515747070313	-748.1482543945314	-285.1897583007813	232.2791290283204	-702.8771972656251	-255.3794708251954	222.0008087158204	-739.0523071289064	-283.3054504394532	196.4337768554688	-784.710388183594	-394.7332763671876	103.3067474365235	-765.6231079101564	-354.5148010253907	138.0520477294922	-841.2278442382815	-447.3139953613282	92.41558837890626	-833.0950317382815	-242.4051361083985	60.7245445251465	-821.1809082031252	-247.6140594482422	56.76746749877931	-778.9090576171877	-290.0321960449219	32.83684158325196	-733.1145019531251	-393.2287902832032	1448.96044921875	-680.9390258789064	-431.4176330566407	837.5111083984377	-921.666931152344	
